# xmcd
# Copyright (C) 1995-1998 Ti Kan
#
# Track frame offsets:
#       150
#       86634
#       152904
#       223551
#
# Disc length: 4158 seconds
#
# Revision: 0
# Processed by: cddbd v1.5.2PL0 Copyright (c) Steve Scherf et al.
# Submitted via: CD-Transfer v1.0
#
DISCID=2e103c04
DTITLE=Friday Night Life Mixed By Dj U.r.s. - 
DYEAR=1900
DGENRE=
TTITLE0=Groovy Groovy
TTITLE1=Funky Grooves
TTITLE2=Rock Classics
TTITLE3=House
EXTD=
EXTT0=
EXTT1=
EXTT2=
EXTT3=
PLAYORDER=
